<?xml version="1.0" standalone="no"?>
<!DOCTYPE svg PUBLIC "-//W3C//DTD SVG 20010904//EN"
 "http://www.w3.org/TR/2001/REC-SVG-20010904/DTD/svg10.dtd">
<svg version="1.0" xmlns="http://www.w3.org/2000/svg"
 width="555.000000pt" height="479.000000pt" viewBox="0 0 555.000000 479.000000"
 preserveAspectRatio="xMidYMid meet">

<g transform="translate(0.000000,479.000000) scale(0.100000,-0.100000)"
fill="#097EEB" stroke="none">
<path d="M2615 4784 c-121 -8 -333 -36 -455 -61 -1010 -203 -1815 -917 -2039
-1809 -47 -185 -63 -319 -64 -514 -1 -258 33 -471 114 -708 42 -121 146 -352
160 -352 4 0 29 9 56 21 196 85 530 188 818 253 366 82 683 134 1410 231 431
57 679 98 825 136 279 71 357 169 199 249 -87 45 -316 93 -744 155 -678 98
-951 155 -1163 240 -257 104 -343 227 -269 388 40 88 119 135 318 187 202 53
444 87 1028 145 570 57 742 84 841 133 48 24 55 31 55 57 0 24 -8 34 -46 57
-96 60 -361 132 -744 203 l-190 35 195 -5 c612 -14 1085 -142 1157 -312 11
-28 11 -38 -1 -68 -33 -77 -179 -133 -529 -201 -128 -25 -302 -58 -387 -75
-329 -63 -442 -117 -414 -197 7 -19 21 -31 49 -40 22 -7 198 -40 390 -72 539
-91 824 -155 1082 -244 276 -94 417 -171 539 -291 108 -108 129 -151 129 -275
0 -86 -3 -101 -32 -162 -48 -101 -108 -184 -202 -278 -390 -390 -1177 -744
-2361 -1065 -206 -55 -683 -168 -859 -202 l-95 -19 80 -38 c253 -122 494 -199
809 -257 167 -31 704 -39 895 -14 583 76 1121 312 1525 671 258 228 447 474
585 759 551 1132 40 2441 -1185 3040 -298 146 -609 237 -950 279 -125 15 -426
26 -530 20z m102 -950 c-3 -3 -12 -4 -19 -1 -8 3 -5 6 6 6 11 1 17 -2 13 -5z"/>
</g>
</svg>
